<mxfile host="Electron" agent="Mozilla/5.0 (Windows NT 10.0; Win64; x64) AppleWebKit/537.36 (KHTML, like Gecko) draw.io/27.0.5 Chrome/134.0.6998.205 Electron/35.3.0 Safari/537.36" version="27.0.5">
  <diagram name="Page-1" id="qd5INHHOwJsK4rJDk_oG">
    <mxGraphModel dx="1226" dy="746" grid="1" gridSize="10" guides="1" tooltips="1" connect="1" arrows="1" fold="1" page="1" pageScale="1" pageWidth="1100" pageHeight="850" math="0" shadow="0">
      <root>
        <mxCell id="0" />
        <mxCell id="1" parent="0" />
        <mxCell id="OfVxDpTahiI_S3GSohkP-1" value="" style="endArrow=none;html=1;rounded=0;" edge="1" parent="1">
          <mxGeometry width="50" height="50" relative="1" as="geometry">
            <mxPoint x="53.5" y="130" as="sourcePoint" />
            <mxPoint x="870" y="130" as="targetPoint" />
          </mxGeometry>
        </mxCell>
        <mxCell id="OfVxDpTahiI_S3GSohkP-2" value="&lt;b&gt;&lt;font style=&quot;font-size: 42px;&quot;&gt;Table Relation &amp;amp; Integration&amp;nbsp;&lt;/font&gt;&lt;/b&gt;" style="text;html=1;align=center;verticalAlign=middle;resizable=0;points=[];autosize=1;strokeColor=none;fillColor=none;" vertex="1" parent="1">
          <mxGeometry x="50" y="63" width="590" height="60" as="geometry" />
        </mxCell>
        <mxCell id="OfVxDpTahiI_S3GSohkP-3" value="&lt;font style=&quot;font-size: 17px;&quot;&gt;@ParthTailor&lt;/font&gt;" style="text;html=1;align=center;verticalAlign=middle;resizable=0;points=[];autosize=1;strokeColor=none;fillColor=none;" vertex="1" parent="1">
          <mxGeometry x="750" y="93" width="120" height="30" as="geometry" />
        </mxCell>
        <mxCell id="OfVxDpTahiI_S3GSohkP-6" value="&lt;font style=&quot;font-size: 18px; color: rgb(255, 255, 255);&quot;&gt;crm_sales_details&lt;/font&gt;" style="rounded=0;whiteSpace=wrap;html=1;fillColor=#737373;fontStyle=1" vertex="1" parent="1">
          <mxGeometry x="80" y="290" width="160" height="30" as="geometry" />
        </mxCell>
        <mxCell id="OfVxDpTahiI_S3GSohkP-7" value="&lt;font style=&quot;font-size: 17px;&quot;&gt;&amp;nbsp; prd_key&lt;/font&gt;&lt;div&gt;&lt;font style=&quot;font-size: 17px;&quot;&gt;&amp;nbsp; cst_id&lt;/font&gt;&lt;/div&gt;" style="rounded=0;whiteSpace=wrap;html=1;align=left;" vertex="1" parent="1">
          <mxGeometry x="80" y="320" width="160" height="50" as="geometry" />
        </mxCell>
        <mxCell id="OfVxDpTahiI_S3GSohkP-9" value="&lt;font style=&quot;font-size: 18px; color: rgb(117, 117, 117);&quot;&gt;&lt;b&gt;Sales&lt;/b&gt;&lt;/font&gt;" style="rounded=0;whiteSpace=wrap;html=1;" vertex="1" parent="1">
          <mxGeometry x="80" y="370" width="160" height="30" as="geometry" />
        </mxCell>
        <mxCell id="OfVxDpTahiI_S3GSohkP-10" value="&lt;font style=&quot;font-size: 18px; color: rgb(255, 255, 255);&quot;&gt;crm_sales_details&lt;/font&gt;" style="rounded=0;whiteSpace=wrap;html=1;fillColor=#507344;fontStyle=1" vertex="1" parent="1">
          <mxGeometry x="310" y="200" width="160" height="30" as="geometry" />
        </mxCell>
        <mxCell id="OfVxDpTahiI_S3GSohkP-11" value="&lt;font style=&quot;font-size: 17px;&quot;&gt;&amp;nbsp;&amp;nbsp;&lt;/font&gt;&lt;div&gt;&lt;font style=&quot;font-size: 17px;&quot;&gt;&amp;nbsp; &amp;nbsp;prd_key&lt;/font&gt;&lt;div&gt;&lt;font style=&quot;font-size: 17px;&quot;&gt;&amp;nbsp;&lt;/font&gt;&lt;/div&gt;&lt;/div&gt;" style="rounded=0;whiteSpace=wrap;html=1;align=left;" vertex="1" parent="1">
          <mxGeometry x="310" y="230" width="160" height="30" as="geometry" />
        </mxCell>
        <mxCell id="OfVxDpTahiI_S3GSohkP-12" value="&lt;font style=&quot;font-size: 18px; color: rgb(0, 117, 0);&quot;&gt;&lt;b style=&quot;&quot;&gt;Product&lt;/b&gt;&lt;/font&gt;" style="rounded=0;whiteSpace=wrap;html=1;" vertex="1" parent="1">
          <mxGeometry x="310" y="260" width="160" height="30" as="geometry" />
        </mxCell>
        <mxCell id="OfVxDpTahiI_S3GSohkP-13" value="&lt;font style=&quot;font-size: 18px; color: rgb(255, 255, 255);&quot;&gt;&lt;b&gt;crm_cust_info&lt;/b&gt;&lt;/font&gt;" style="rounded=0;whiteSpace=wrap;html=1;fillColor=#3B6C9E;strokeColor=#3B6C9E;" vertex="1" parent="1">
          <mxGeometry x="310" y="440" width="160" height="30" as="geometry" />
        </mxCell>
        <mxCell id="OfVxDpTahiI_S3GSohkP-14" value="&lt;font style=&quot;font-size: 17px;&quot;&gt;&amp;nbsp; cst_key&lt;/font&gt;&lt;div&gt;&lt;font style=&quot;font-size: 17px;&quot;&gt;&amp;nbsp; cst_id&lt;/font&gt;&lt;/div&gt;" style="rounded=0;whiteSpace=wrap;html=1;align=left;" vertex="1" parent="1">
          <mxGeometry x="310" y="470" width="160" height="50" as="geometry" />
        </mxCell>
        <mxCell id="OfVxDpTahiI_S3GSohkP-15" value="&lt;font style=&quot;font-size: 18px; color: rgb(34, 113, 184);&quot;&gt;&lt;b&gt;Customer&lt;/b&gt;&lt;/font&gt;" style="rounded=0;whiteSpace=wrap;html=1;" vertex="1" parent="1">
          <mxGeometry x="310" y="520" width="160" height="30" as="geometry" />
        </mxCell>
        <mxCell id="OfVxDpTahiI_S3GSohkP-16" value="&lt;font style=&quot;font-size: 18px; color: rgb(255, 255, 255);&quot;&gt;erp_px_cat_gv12&lt;/font&gt;" style="rounded=0;whiteSpace=wrap;html=1;fillColor=#507344;strokeColor=#82b366;fontStyle=1" vertex="1" parent="1">
          <mxGeometry x="660" y="200" width="160" height="30" as="geometry" />
        </mxCell>
        <mxCell id="OfVxDpTahiI_S3GSohkP-17" value="&lt;span style=&quot;font-size: 17px;&quot;&gt;&amp;nbsp; id&lt;/span&gt;" style="rounded=0;whiteSpace=wrap;html=1;align=left;" vertex="1" parent="1">
          <mxGeometry x="660" y="230" width="160" height="30" as="geometry" />
        </mxCell>
        <mxCell id="OfVxDpTahiI_S3GSohkP-18" value="&lt;b style=&quot;font-size: 18px;&quot;&gt;&lt;font style=&quot;color: rgb(0, 117, 0);&quot;&gt;Product&lt;/font&gt;&lt;/b&gt;" style="rounded=0;whiteSpace=wrap;html=1;" vertex="1" parent="1">
          <mxGeometry x="660" y="260" width="160" height="30" as="geometry" />
        </mxCell>
        <mxCell id="OfVxDpTahiI_S3GSohkP-19" value="&lt;font style=&quot;font-size: 18px; color: rgb(255, 255, 255);&quot;&gt;erp_cust_az12&lt;/font&gt;" style="rounded=0;whiteSpace=wrap;html=1;fillColor=#3B6C9E;strokeColor=#6c8ebf;fontStyle=1" vertex="1" parent="1">
          <mxGeometry x="660" y="390" width="160" height="30" as="geometry" />
        </mxCell>
        <mxCell id="OfVxDpTahiI_S3GSohkP-20" value="&lt;span style=&quot;font-size: 17px;&quot;&gt;&amp;nbsp; cid&lt;/span&gt;" style="rounded=0;whiteSpace=wrap;html=1;align=left;" vertex="1" parent="1">
          <mxGeometry x="660" y="420" width="160" height="30" as="geometry" />
        </mxCell>
        <mxCell id="OfVxDpTahiI_S3GSohkP-21" value="&lt;b style=&quot;font-size: 18px;&quot;&gt;&lt;font style=&quot;color: rgb(34, 113, 184);&quot;&gt;Customer&lt;/font&gt;&lt;/b&gt;" style="rounded=0;whiteSpace=wrap;html=1;" vertex="1" parent="1">
          <mxGeometry x="660" y="450" width="160" height="30" as="geometry" />
        </mxCell>
        <mxCell id="OfVxDpTahiI_S3GSohkP-22" value="&lt;font style=&quot;font-size: 18px; color: rgb(255, 255, 255);&quot;&gt;erp_loc_a101&lt;/font&gt;" style="rounded=0;whiteSpace=wrap;html=1;fillColor=#3B6C9E;strokeColor=#6c8ebf;fontStyle=1" vertex="1" parent="1">
          <mxGeometry x="660" y="520" width="160" height="30" as="geometry" />
        </mxCell>
        <mxCell id="OfVxDpTahiI_S3GSohkP-24" value="&lt;b style=&quot;font-size: 18px;&quot;&gt;&lt;font style=&quot;color: rgb(34, 113, 184);&quot;&gt;Customer&lt;/font&gt;&lt;/b&gt;" style="rounded=0;whiteSpace=wrap;html=1;" vertex="1" parent="1">
          <mxGeometry x="660" y="580" width="160" height="30" as="geometry" />
        </mxCell>
        <mxCell id="OfVxDpTahiI_S3GSohkP-26" value="" style="edgeStyle=elbowEdgeStyle;elbow=horizontal;endArrow=classic;html=1;curved=0;rounded=0;endSize=8;startSize=8;exitX=1;exitY=0.25;exitDx=0;exitDy=0;entryX=0;entryY=0.75;entryDx=0;entryDy=0;" edge="1" parent="1" source="OfVxDpTahiI_S3GSohkP-7" target="OfVxDpTahiI_S3GSohkP-11">
          <mxGeometry width="50" height="50" relative="1" as="geometry">
            <mxPoint x="510" y="350" as="sourcePoint" />
            <mxPoint x="560" y="300" as="targetPoint" />
            <Array as="points">
              <mxPoint x="280" y="330" />
            </Array>
          </mxGeometry>
        </mxCell>
        <mxCell id="OfVxDpTahiI_S3GSohkP-27" value="" style="edgeStyle=elbowEdgeStyle;elbow=horizontal;endArrow=classic;html=1;curved=0;rounded=0;endSize=8;startSize=8;exitX=1;exitY=0.5;exitDx=0;exitDy=0;entryX=0;entryY=0.75;entryDx=0;entryDy=0;" edge="1" parent="1" target="OfVxDpTahiI_S3GSohkP-14">
          <mxGeometry width="50" height="50" relative="1" as="geometry">
            <mxPoint x="240" y="355" as="sourcePoint" />
            <mxPoint x="310" y="263" as="targetPoint" />
            <Array as="points">
              <mxPoint x="280" y="340" />
            </Array>
          </mxGeometry>
        </mxCell>
        <mxCell id="OfVxDpTahiI_S3GSohkP-29" value="" style="edgeStyle=elbowEdgeStyle;elbow=horizontal;endArrow=classic;html=1;curved=0;rounded=0;endSize=8;startSize=8;exitX=1;exitY=0.5;exitDx=0;exitDy=0;entryX=0;entryY=0.5;entryDx=0;entryDy=0;" edge="1" parent="1" target="OfVxDpTahiI_S3GSohkP-20">
          <mxGeometry width="50" height="50" relative="1" as="geometry">
            <mxPoint x="470" y="492" as="sourcePoint" />
            <mxPoint x="540" y="400" as="targetPoint" />
            <Array as="points">
              <mxPoint x="510" y="477" />
            </Array>
          </mxGeometry>
        </mxCell>
        <mxCell id="OfVxDpTahiI_S3GSohkP-30" value="" style="edgeStyle=elbowEdgeStyle;elbow=horizontal;endArrow=classic;html=1;curved=0;rounded=0;endSize=8;startSize=8;exitX=1;exitY=0.5;exitDx=0;exitDy=0;entryX=0;entryY=0.25;entryDx=0;entryDy=0;" edge="1" parent="1">
          <mxGeometry width="50" height="50" relative="1" as="geometry">
            <mxPoint x="470" y="502" as="sourcePoint" />
            <mxPoint x="660" y="562.5" as="targetPoint" />
            <Array as="points">
              <mxPoint x="510" y="487" />
            </Array>
          </mxGeometry>
        </mxCell>
        <mxCell id="OfVxDpTahiI_S3GSohkP-32" value="&lt;span style=&quot;font-size: 17px;&quot;&gt;&amp;nbsp; cid&lt;/span&gt;" style="rounded=0;whiteSpace=wrap;html=1;align=left;" vertex="1" parent="1">
          <mxGeometry x="660" y="550" width="160" height="30" as="geometry" />
        </mxCell>
        <mxCell id="OfVxDpTahiI_S3GSohkP-34" value="" style="endArrow=classic;html=1;rounded=0;exitX=1;exitY=0.5;exitDx=0;exitDy=0;entryX=0;entryY=0.5;entryDx=0;entryDy=0;" edge="1" parent="1" source="OfVxDpTahiI_S3GSohkP-11" target="OfVxDpTahiI_S3GSohkP-17">
          <mxGeometry width="50" height="50" relative="1" as="geometry">
            <mxPoint x="510" y="350" as="sourcePoint" />
            <mxPoint x="560" y="300" as="targetPoint" />
          </mxGeometry>
        </mxCell>
        <mxCell id="OfVxDpTahiI_S3GSohkP-35" value="" style="shape=curlyBracket;whiteSpace=wrap;html=1;rounded=1;labelPosition=left;verticalLabelPosition=middle;align=right;verticalAlign=middle;rotation=-90;strokeWidth=4;" vertex="1" parent="1">
          <mxGeometry x="251.56" y="428.44" width="52.5" height="440" as="geometry" />
        </mxCell>
        <mxCell id="OfVxDpTahiI_S3GSohkP-36" value="" style="shape=curlyBracket;whiteSpace=wrap;html=1;rounded=1;labelPosition=left;verticalLabelPosition=middle;align=right;verticalAlign=middle;rotation=-90;strokeWidth=4;" vertex="1" parent="1">
          <mxGeometry x="716.09" y="509.22" width="52.5" height="278.44" as="geometry" />
        </mxCell>
        <mxCell id="OfVxDpTahiI_S3GSohkP-37" value="" style="endArrow=none;dashed=1;html=1;dashPattern=1 3;strokeWidth=2;rounded=0;" edge="1" parent="1">
          <mxGeometry width="50" height="50" relative="1" as="geometry">
            <mxPoint x="496" y="610" as="sourcePoint" />
            <mxPoint x="496" y="200" as="targetPoint" />
          </mxGeometry>
        </mxCell>
        <mxCell id="OfVxDpTahiI_S3GSohkP-38" value="" style="endArrow=none;dashed=1;html=1;dashPattern=1 3;strokeWidth=2;rounded=0;" edge="1" parent="1">
          <mxGeometry width="50" height="50" relative="1" as="geometry">
            <mxPoint x="60" y="610" as="sourcePoint" />
            <mxPoint x="60" y="200" as="targetPoint" />
          </mxGeometry>
        </mxCell>
        <mxCell id="OfVxDpTahiI_S3GSohkP-39" value="" style="endArrow=none;dashed=1;html=1;dashPattern=1 3;strokeWidth=2;rounded=0;" edge="1" parent="1">
          <mxGeometry width="50" height="50" relative="1" as="geometry">
            <mxPoint x="603" y="610" as="sourcePoint" />
            <mxPoint x="603" y="200" as="targetPoint" />
          </mxGeometry>
        </mxCell>
        <mxCell id="OfVxDpTahiI_S3GSohkP-40" value="" style="endArrow=none;dashed=1;html=1;dashPattern=1 3;strokeWidth=2;rounded=0;" edge="1" parent="1">
          <mxGeometry width="50" height="50" relative="1" as="geometry">
            <mxPoint x="880" y="610" as="sourcePoint" />
            <mxPoint x="880" y="200" as="targetPoint" />
          </mxGeometry>
        </mxCell>
        <mxCell id="OfVxDpTahiI_S3GSohkP-42" value="&lt;font style=&quot;font-size: 50px;&quot;&gt;CRM&lt;/font&gt;" style="whiteSpace=wrap;html=1;fontStyle=1" vertex="1" parent="1">
          <mxGeometry x="187.81" y="680" width="180" height="60" as="geometry" />
        </mxCell>
        <mxCell id="OfVxDpTahiI_S3GSohkP-43" value="&lt;font style=&quot;font-size: 50px;&quot;&gt;ERP&lt;/font&gt;" style="whiteSpace=wrap;html=1;fontStyle=1" vertex="1" parent="1">
          <mxGeometry x="652.3399999999999" y="680" width="180" height="60" as="geometry" />
        </mxCell>
      </root>
    </mxGraphModel>
  </diagram>
</mxfile>
